<?xml version="1.0" encoding="UTF-8"?>
<svg width="550px" height="550px" viewBox="0 0 550 550" version="1.1"
    xmlns="http://www.w3.org/2000/svg" xmlns:xlink="http://www.w3.org/1999/xlink">
    <title>Coingate</title>
    <g id="Page-1" stroke="none" stroke-width="1" fill="none" fill-rule="evenodd">
        <g id="Fixtures-Copy-7" transform="translate(-100, -100)">
            <g id="Coingate" transform="translate(100, 100)">
                <path
                    d="M275,0 C426.878306,0 550,123.121694 550,275 C550,426.878306 426.878306,550 275,550 C123.121694,550 0,426.878306 0,275 C0,123.121694 123.121694,0 275,0 Z"
                    id="Rectangle" fill="#5022ED"></path>
                <g id="Group-6-Copy" transform="translate(150, 212)" fill="#FFFFFF"
                    fill-rule="nonzero">
                    <path
                        d="M215.54499,6.71518813 L201.762646,26.7276321 C197.551264,24.8033412 192.574228,23.6487554 187.597192,23.6487554 C184.534009,23.6487554 181.854502,24.0336362 179.174429,24.8033412 C178.791319,24.8033412 178.408775,24.8033412 178.025664,25.1882221 C173.814283,26.3427513 169.602901,27.8821614 166.157174,30.5761573 C165.774629,30.9610381 165.391519,30.9610381 165.008975,31.3458623 C161.945792,33.6549774 158.883175,36.3489733 156.586212,39.8126742 C147.780338,50.9737085 140.889449,67.1371179 129.020958,84.4559056 C127.872194,85.9950892 126.723995,87.9192103 125.192121,89.45896 C116.003703,102.159065 103.752668,112.550111 89.5872144,119.477286 C88.8215601,119.862224 88.0559058,120.247161 87.2902515,120.632099 C85.3758327,121.401973 83.0788698,122.171282 81.164451,122.941157 C79.6331424,123.326094 78.4843779,123.711032 76.9530693,124.095969 C73.1247977,124.865278 68.913416,125.635153 65.0845785,125.635153 C64.3189242,125.635153 63.5532698,125.635153 62.4045054,125.635153 C27.948137,125.635153 0,97.5409477 0,62.9039383 C0,28.2670422 27.948137,0.172667072 62.4045054,0.172667072 C78.4843779,0.172667072 94.1811403,6.33030731 105.667087,17.8759394 L91.8841774,37.8883833 C78.1018337,20.9548161 53.5991412,19.0305252 37.5194385,33.2701532 C21.0567954,47.1249003 19.1425464,71.7558009 32.925173,88.3041477 C40.1993983,97.1560103 51.3020651,102.159065 62.4045054,102.159065 C63.1701597,102.159065 63.93638,102.159065 65.0845785,102.159065 C70.4447246,101.774127 75.4217607,100.619881 80.0156866,97.9258851 C80.0156866,97.9258851 80.0156866,97.9258851 80.3987967,97.9258851 C93.7985961,91.7680184 104.518323,77.9131015 122.895158,45.9703145 C123.660812,44.8157852 124.426467,43.2763752 125.192121,41.7369651 C131.317921,30.5761573 139.740685,20.9548161 149.694757,12.8728284 C150.077867,12.4880042 150.460411,12.4880042 150.843521,12.1031233 C151.226066,11.7182991 151.99172,11.3334183 152.37483,10.9485941 C153.523594,10.1788891 154.671793,9.40918403 155.820557,8.639479 C157.351866,7.86971737 158.883175,7.10001234 160.414483,6.33030731 L161.563248,5.56060228 C162.328902,5.17577807 163.094556,4.79089725 163.477666,4.79089725 C164.243321,4.40607304 165.391519,4.02119222 166.157174,3.63636801 C182.620156,-2.13647632 200.231337,-0.981918777 215.54499,6.71518813 Z"
                        id="Path"></path>
                    <path
                        d="M250,50.9697459 L250,62.8999757 C250,65.2096003 250,67.1337213 249.61689,69.4427798 C249.234346,71.3669009 249.234346,72.9066506 248.851236,74.8307716 C242.342891,109.082844 209.800602,131.40412 175.727004,124.861882 C164.241057,122.552823 153.904441,117.164831 145.098567,109.467781 L158.881477,89.4549974 C173.429475,105.234035 197.932111,106.388848 213.628873,91.7640559 C218.605909,87.1459389 222.434747,81.3730097 224.349166,74.8307716 L185.681076,74.8307716 L202.143493,50.9697459 L250,50.9697459 Z"
                        id="Path"></path>
                </g>
            </g>
        </g>
    </g>
</svg>
